<svg width="24" height="24" viewBox="0 0 24 24" fill="none" xmlns="http://www.w3.org/2000/svg">
<path opacity="0.1" fill-rule="evenodd" clip-rule="evenodd" d="M0 12C0 5.37258 5.37258 0 12 0C18.6274 0 24 5.37258 24 12C24 18.6274 18.6274 24 12 24C5.37258 24 0 18.6274 0 12Z" fill="white"/>
<path d="M12 3C10.22 3 8.47991 3.49852 6.99987 4.43251C5.51983 5.3665 4.36628 6.69402 3.68509 8.24719C3.0039 9.80036 2.82567 11.5094 3.17294 13.1583C3.5202 14.8071 4.37737 16.3217 5.63604 17.5104C6.89472 18.6992 8.49836 19.5087 10.2442 19.8367C11.99 20.1646 13.7996 19.9963 15.4442 19.353C17.0887 18.7096 18.4943 17.6202 19.4832 16.2223C20.4722 14.8245 21 13.1811 21 11.5C20.9972 9.24647 20.0481 7.08601 18.3609 5.49253C16.6736 3.89905 14.3861 3.00266 12 3ZM12 18.4545C10.5436 18.4545 9.11993 18.0467 7.90899 17.2825C6.69804 16.5183 5.75423 15.4322 5.19689 14.1614C4.63955 12.8906 4.49373 11.4923 4.77786 10.1432C5.06199 8.79419 5.7633 7.555 6.79313 6.58239C7.82295 5.60978 9.13502 4.94743 10.5634 4.67908C11.9918 4.41074 13.4724 4.54846 14.8179 5.07484C16.1635 5.60121 17.3135 6.49259 18.1226 7.63626C18.9318 8.77993 19.3636 10.1245 19.3636 11.5C19.3613 13.3438 18.5847 15.1114 17.2042 16.4151C15.8238 17.7189 13.9522 18.4523 12 18.4545ZM12.8182 14.9773V16.5227H11.1818V14.9773H12.8182ZM15.2727 9.56818C15.2736 10.0316 15.1637 10.4892 14.9512 10.907C14.7387 11.3247 14.4291 11.6917 14.0455 11.9806C13.4257 12.4342 13.0067 13.0891 12.8697 13.8182H11.2072C11.2795 13.2224 11.4774 12.6464 11.7893 12.124C12.1011 11.6017 12.5205 11.1436 13.0227 10.7767C13.2243 10.6244 13.3848 10.4291 13.4912 10.207C13.5976 9.98482 13.6468 9.74204 13.6348 9.49848C13.6229 9.25492 13.5501 9.01749 13.4223 8.80559C13.2946 8.59369 13.1156 8.41334 12.9 8.27927C12.6597 8.13091 12.3831 8.04308 12.0967 8.02415C11.8103 8.00521 11.5235 8.0558 11.2636 8.17109C10.9864 8.29658 10.7538 8.49542 10.594 8.74344C10.4342 8.99147 10.3542 9.27799 10.3636 9.56818C10.3636 9.77312 10.2774 9.96967 10.124 10.1146C9.97056 10.2595 9.76245 10.3409 9.54546 10.3409C9.32846 10.3409 9.12035 10.2595 8.96692 10.1146C8.81348 9.96967 8.72728 9.77312 8.72728 9.56818C8.7151 8.97429 8.8886 8.39019 9.22608 7.88894C9.56356 7.38769 10.05 6.99155 10.6246 6.75004C11.134 6.53505 11.6925 6.44466 12.2486 6.4872C12.8047 6.52974 13.3405 6.70384 13.8065 6.99345C14.2569 7.27503 14.6265 7.6575 14.8823 8.10676C15.1381 8.55601 15.2723 9.05808 15.2727 9.56818Z" fill="#FBD852"/>
</svg>
