<svg width="42" height="42" viewBox="0 0 42 42" fill="none" xmlns="http://www.w3.org/2000/svg">
<g clip-path="url(#clip0_35_141)">
<path d="M0.114693 35.4074L1.88599 28.1066C2.13725 27.0712 2.81155 26.1738 3.73612 25.6444L10.6008 21.7139C11.1523 21.3982 11.1535 20.6027 10.6008 20.2863L3.73604 16.3558C2.81146 15.8264 2.13717 14.9291 1.88591 13.8937L0.114693 6.59269C-0.648689 3.4463 2.53978 0.79588 5.49339 2.11921L39.6971 17.4451C42.7695 18.8217 42.7656 23.1801 39.6972 24.5551L5.49339 39.8809C2.53748 41.2052 -0.647376 38.5481 0.114693 35.4074Z" fill="#F5E680"/>
<path d="M39.6972 17.4452L21.001 9.06781V32.9325L39.6973 24.5552C42.7657 23.1802 42.7697 18.8217 39.6972 17.4452Z" fill="#D9CD9C"/>
<path d="M15.3393 27.0506C14.9923 26.2762 15.3388 25.367 16.1132 25.0201L25.085 21.0001L16.1132 16.9801C15.3388 16.6332 14.9923 15.724 15.3393 14.9497C15.6862 14.1753 16.5951 13.8286 17.3698 14.1758L29.4709 19.598C30.679 20.1393 30.68 21.8607 29.4709 22.4024L17.3698 27.8246C16.5956 28.1714 15.6865 27.8254 15.3393 27.0506Z" fill="#151339"/>
<path d="M29.4713 19.5979L21.001 15.8025V19.1699L25.0854 21.0001L21.001 22.8303V26.1976L29.4713 22.4022C30.6803 21.8606 30.6794 20.1392 29.4713 19.5979Z" fill="#151339"/>
</g>
<defs>
<clipPath id="clip0_35_141">
<rect width="42" height="42" fill="white"/>
</clipPath>
</defs>
</svg>
