<svg width="24" height="24" viewBox="0 0 24 24" fill="none" xmlns="http://www.w3.org/2000/svg">
<rect opacity="0.1" width="24" height="24" rx="12" fill="#FBD852"/>
<path d="M12.4033 2.01584C13.4085 2 14.4063 2.00824 15.4034 2C15.4366 3.2869 15.9426 4.44517 16.7475 5.30311L16.7463 5.30184C17.6127 6.10718 18.74 6.62929 19.9828 6.718L20 6.71927V9.91022C18.826 9.87981 17.722 9.60038 16.7267 9.12009L16.777 9.14163C16.2956 8.90275 15.8885 8.65754 15.5017 8.38381L15.5336 8.40536C15.5263 10.7175 15.541 13.0296 15.5183 15.3335C15.455 16.5076 15.0768 17.5784 14.4701 18.4725L14.4824 18.4528C13.4681 19.952 11.8249 20.936 9.95648 20.9943H9.94788C9.87236 20.9981 9.78332 21 9.69368 21C8.63142 21 7.63855 20.6946 6.79243 20.1642L6.817 20.1788C5.27703 19.2227 4.21478 17.5866 4.01829 15.6839L4.01584 15.6579C4.00049 15.2619 3.99312 14.8658 4.00847 14.4781C4.30934 11.4499 6.76787 9.10742 9.75631 9.10742C10.0922 9.10742 10.4213 9.1372 10.7412 9.19359L10.7068 9.18852C10.7222 10.3601 10.6761 11.5323 10.6761 12.7039C10.4164 12.6069 10.1167 12.5506 9.8042 12.5506C8.65721 12.5506 7.68154 13.3071 7.32049 14.3634L7.31497 14.3824C7.2333 14.6529 7.18602 14.9641 7.18602 15.2859C7.18602 15.4165 7.194 15.5457 7.20874 15.6724L7.20751 15.6572C7.41137 16.9536 8.48836 17.932 9.78701 17.932C9.82446 17.932 9.86131 17.9313 9.89815 17.9294H9.89262C10.7909 17.9016 11.5707 17.4029 12.0116 16.666L12.0177 16.6546C12.1817 16.4189 12.2941 16.1337 12.3315 15.8239L12.3321 15.815C12.4089 14.3976 12.3782 12.9884 12.3855 11.571C12.3929 8.38001 12.3782 5.19666 12.4009 2.01394L12.4033 2.01584Z" fill="#FBD852"/>
</svg>
