<svg width="120" height="89" viewBox="0 0 120 89" fill="none" xmlns="http://www.w3.org/2000/svg">
<path d="M63.6185 6.14717C65.7696 6.14717 67.5135 4.77106 67.5135 3.07358C67.5135 1.37611 65.7696 8.44432e-07 63.6185 8.44432e-07V6.14717ZM111.657 37.9075C111.657 36.2101 109.913 34.8339 107.762 34.8339C105.611 34.8339 103.867 36.2101 103.867 37.9075H111.657ZM1.07011e-06 37.9075C1.07011e-06 39.605 1.74387 40.9811 3.89501 40.9811C6.04614 40.9811 7.79002 39.605 7.79002 37.9075H1.07011e-06ZM9.47012 58.9161C8.64692 57.3477 6.36844 56.6031 4.38105 57.2526C2.39367 57.9022 1.44988 59.7 2.27308 61.2684L9.47012 58.9161ZM64.8238 84.092L67.6392 80.3389L60.9351 77.2076L58.1198 80.961L64.8238 84.092ZM44.0177 80.3389L46.8331 84.092L53.5366 80.961L50.7213 77.2076L44.0177 80.3389ZM58.1198 80.961C57.119 82.2954 54.5379 82.2954 53.5366 80.961L46.8331 84.092C50.8506 89.4482 60.8063 89.4482 64.8238 84.092L58.1198 80.961ZM48.0384 6.14717H63.6185V8.44432e-07H48.0384V6.14717ZM103.867 37.9075V42.0056H111.657V37.9075H103.867ZM34.0294 69.6334C27.5095 69.5445 24.0931 69.2175 21.4152 68.3421L18.4341 74.0213C22.6146 75.3876 27.3761 75.6909 33.8952 75.7794L34.0294 69.6334ZM2.27308 61.2684C5.30386 67.0422 11.1172 71.6296 18.4341 74.0213L21.4152 68.3421C16.007 66.5742 11.7103 63.1838 9.47012 58.9161L2.27308 61.2684ZM103.867 42.0056C103.867 46.8213 103.865 50.2793 103.629 53.0078C103.395 55.7089 102.946 57.4703 102.187 58.9161L109.384 61.2684C110.602 58.9489 111.14 56.4404 111.401 53.4262C111.659 50.44 111.657 46.7373 111.657 42.0056H103.867ZM77.7615 75.7794C84.2807 75.6909 89.0425 75.3876 93.2226 74.0213L90.2416 68.3421C87.5639 69.2175 84.1472 69.5445 77.6275 69.6334L77.7615 75.7794ZM102.187 58.9161C99.9464 63.1838 95.65 66.5742 90.2416 68.3421L93.2226 74.0213C100.54 71.6296 106.353 67.0422 109.384 61.2684L102.187 58.9161ZM48.0384 8.44432e-07C39.6138 8.44432e-07 33.0219 -0.00323684 27.7642 0.391247C22.4485 0.790075 18.096 1.61699 14.259 3.47241L18.3293 8.71373C20.7366 7.54966 23.7561 6.86684 28.5015 6.51079C33.3049 6.1504 39.463 6.14717 48.0384 6.14717V8.44432e-07ZM7.79002 37.9075C7.79002 31.1406 7.79412 26.2812 8.25082 22.4908C8.70202 18.7461 9.56734 16.3634 11.0425 14.4638L4.40043 11.2519C2.04914 14.2797 1.00123 17.7143 0.495809 21.9089C-0.00410189 26.0578 1.07011e-06 31.2596 1.07011e-06 37.9075H7.79002ZM14.259 3.47241C10.241 5.41541 6.86269 8.08123 4.40043 11.2519L11.0425 14.4638C12.8625 12.1202 15.3594 10.1499 18.3293 8.71373L14.259 3.47241ZM50.7213 77.2076C49.6671 75.8019 48.7416 74.5614 47.8416 73.5869C46.8933 72.5607 45.8063 71.6366 44.2985 70.9444L40.382 76.2585C40.6282 76.3712 40.9636 76.5773 41.546 77.2076C42.1763 77.8903 42.8885 78.8333 44.0177 80.3389L50.7213 77.2076ZM33.8952 75.7794C36.1755 75.8105 37.6199 75.8335 38.721 75.9294C39.7498 76.0195 40.1486 76.1511 40.382 76.2585L44.2985 70.9444C42.7781 70.2465 41.196 69.9609 39.5783 69.8195C38.0329 69.6847 36.1652 69.6625 34.0294 69.6334L33.8952 75.7794ZM67.6392 80.3389C68.7682 78.8333 69.4802 77.8903 70.1107 77.2076C70.6928 76.5773 71.0283 76.3712 71.2745 76.2585L67.3582 70.9444C65.8506 71.6366 64.7631 72.5607 63.8153 73.5869C62.9153 74.5614 61.9898 75.8019 60.9351 77.2076L67.6392 80.3389ZM77.6275 69.6334C75.4915 69.6625 73.624 69.6847 72.0784 69.8195C70.4607 69.9609 68.8788 70.2465 67.3582 70.9444L71.2745 76.2585C71.5082 76.1511 71.907 76.0195 72.9358 75.9294C74.0368 75.8335 75.4811 75.8105 77.7615 75.7794L77.6275 69.6334Z" fill="#FFF98D"/>
<path d="M88.5771 13.7232H23.08C19.4776 13.7232 16.5303 16.1793 16.5303 19.1813V57.3879C16.5303 60.3898 19.4776 62.846 23.08 62.846H88.5771C92.1794 62.846 95.1268 60.3898 95.1268 57.3879V19.1813C95.1268 16.1793 92.1794 13.7232 88.5771 13.7232ZM84.6472 24.6394L58.1209 42.1052C56.811 42.924 54.8461 42.924 53.2086 42.1052L27.0098 24.9123C26.0273 24.3665 25.6999 23.0019 26.6823 21.9103C27.6648 21.0916 28.9747 20.8187 30.2847 21.3645L55.8285 35.5555L81.6999 21.3645C83.0098 20.8187 84.6472 21.0916 85.3022 21.9103C85.9572 22.729 85.6297 24.0935 84.6472 24.6394Z" fill="#FFDF1D"/>
<path d="M77.5832 36.6472L70.1758 49.9805L84.6787 45.0683L120 16.7642L113.061 8.03122L77.5832 36.6472Z" fill="#1E1E1E"/>
<path d="M112.927 21.234L85.9642 42.8799L79.809 41.9253L80.2094 35.7097L107.172 14.067L112.927 21.234Z" fill="#EBB680"/>
<path d="M73.2902 47.2994C73.01 46.9502 72.479 46.8018 71.8904 46.8616C73.6193 43.4787 76.226 39.1651 76.3485 38.8652L76.4745 38.7595C77.1931 38.9228 77.9845 39.0991 78.3785 39.182L78.4044 39.2198L78.0495 43.4573L82.2621 44.0181L82.2708 44.029C82.2719 44.6846 82.2764 45.3402 82.2842 45.9958L82.1538 46.0962C81.8541 46.1527 77.2695 47.8392 73.6059 48.8109C73.7872 48.2435 73.5704 47.6485 73.2902 47.2994Z" fill="white"/>
<path d="M115.313 19.1108L109.558 11.9476L113.467 8.80697L119.215 15.9693L115.313 19.1108Z" fill="white"/>
</svg>
