<svg width="24" height="24" viewBox="0 0 24 24" fill="none" xmlns="http://www.w3.org/2000/svg">
<path opacity="0.1" fill-rule="evenodd" clip-rule="evenodd" d="M0 12C0 5.37258 5.37258 0 12 0C18.6274 0 24 5.37258 24 12C24 18.6274 18.6274 24 12 24C5.37258 24 0 18.6274 0 12Z" fill="white"/>
<path d="M8.43079 18.2722C8.43079 18.673 8.75797 18.9979 9.16156 18.9979C9.56513 18.9979 9.89232 18.673 9.89232 18.2722H8.43079ZM9.16156 16.1135L8.43133 16.0857C8.43097 16.095 8.43079 16.1042 8.43079 16.1135H9.16156ZM11.5 13.9557L11.4743 14.6809C11.4914 14.6815 11.5086 14.6815 11.5257 14.6809L11.5 13.9557ZM13.8384 16.1135H14.5692C14.5692 16.1042 14.569 16.095 14.5687 16.0857L13.8384 16.1135ZM13.1077 18.2722C13.1077 18.673 13.4349 18.9979 13.8384 18.9979C14.242 18.9979 14.5692 18.673 14.5692 18.2722H13.1077ZM9.16156 17.5465C8.75797 17.5465 8.43079 17.8714 8.43079 18.2722C8.43079 18.673 8.75797 18.9979 9.16156 18.9979V17.5465ZM13.8384 18.9979C14.242 18.9979 14.5692 18.673 14.5692 18.2722C14.5692 17.8714 14.242 17.5465 13.8384 17.5465V18.9979ZM9.16156 18.9979C9.56513 18.9979 9.89232 18.673 9.89232 18.2722C9.89232 17.8714 9.56513 17.5465 9.16156 17.5465V18.9979ZM8.57695 18.2722V17.5465C8.56837 17.5465 8.5598 17.5466 8.55122 17.5469L8.57695 18.2722ZM5.06928 15.0346H4.33852C4.33852 15.0437 4.33869 15.0529 4.33904 15.0621L5.06928 15.0346ZM5.80005 8.54585C5.80005 8.14506 5.47287 7.82015 5.06928 7.82015C4.6657 7.82015 4.33852 8.14506 4.33852 8.54585H5.80005ZM2.32044 9.52163C1.9865 9.74667 1.89954 10.198 2.12619 10.5297C2.35286 10.8613 2.80731 10.9476 3.14124 10.7225L2.32044 9.52163ZM5.47968 9.14631C5.81362 8.92121 5.90058 8.46991 5.67392 8.1383C5.44726 7.80668 4.99281 7.72031 4.65888 7.94541L5.47968 9.14631ZM4.65888 7.94541C4.32494 8.17047 4.23798 8.62175 4.46462 8.95338C4.69126 9.28501 5.14574 9.37137 5.47968 9.14631L4.65888 7.94541ZM10.1515 5.12055L9.75503 4.51093C9.75036 4.51393 9.74568 4.51698 9.7411 4.52008L10.1515 5.12055ZM12.8485 5.12055L13.2589 4.52008C13.2543 4.51698 13.2496 4.51393 13.245 4.51093L12.8485 5.12055ZM17.5203 9.14633C17.8543 9.37139 18.3088 9.28501 18.5354 8.95338C18.762 8.62175 18.675 8.17045 18.3411 7.94539L17.5203 9.14633ZM13.8384 17.5465C13.4349 17.5465 13.1077 17.8714 13.1077 18.2722C13.1077 18.673 13.4349 18.9979 13.8384 18.9979V17.5465ZM14.4231 18.2722L14.4488 17.5469C14.4402 17.5466 14.4316 17.5465 14.4231 17.5465V18.2722ZM17.9307 15.0346L18.661 15.0621C18.6613 15.0529 18.6615 15.0437 18.6615 15.0346H17.9307ZM18.6615 8.54585C18.6615 8.14506 18.3343 7.82015 17.9307 7.82015C17.5271 7.82015 17.2 8.14506 17.2 8.54585H18.6615ZM19.859 10.7216C20.193 10.9467 20.6474 10.8602 20.8739 10.5285C21.1005 10.1968 21.0134 9.74551 20.6794 9.52054L19.859 10.7216ZM18.3411 7.94539C18.0071 7.72039 17.5526 7.80679 17.3259 8.13847C17.0994 8.47016 17.1863 8.92133 17.5203 9.14633L18.3411 7.94539ZM9.89232 18.2722V16.1135H8.43079V18.2722H9.89232ZM9.89183 16.1412C9.92399 15.3046 10.6318 14.6514 11.4743 14.6809L11.5257 13.2304C9.87819 13.1728 8.49425 14.4498 8.43133 16.0857L9.89183 16.1412ZM11.5257 14.6809C12.3682 14.6514 13.076 15.3046 13.1082 16.1412L14.5687 16.0857C14.5058 14.4498 13.1218 13.1728 11.4743 13.2304L11.5257 14.6809ZM13.1077 16.1135V18.2722H14.5692V16.1135H13.1077ZM9.16156 18.9979H13.8384V17.5465H9.16156V18.9979ZM9.16156 17.5465H8.57695V18.9979H9.16156V17.5465ZM8.55122 17.5469C7.08586 17.5982 5.85508 16.4621 5.79952 15.0071L4.33904 15.0621C4.42512 17.3166 6.33216 19.0769 8.60267 18.9974L8.55122 17.5469ZM5.80005 15.0346V8.54585H4.33852V15.0346H5.80005ZM3.14124 10.7225L5.47968 9.14631L4.65888 7.94541L2.32044 9.52163L3.14124 10.7225ZM5.47968 9.14631L10.5619 5.72102L9.7411 4.52008L4.65888 7.94541L5.47968 9.14631ZM10.548 5.73016C11.1275 5.35848 11.8725 5.35848 12.452 5.73016L13.245 4.51093C12.1828 3.82969 10.8172 3.82969 9.75503 4.51093L10.548 5.73016ZM12.4381 5.72102L17.5203 9.14633L18.3411 7.94539L13.2589 4.52008L12.4381 5.72102ZM13.8384 18.9979H14.4231V17.5465H13.8384V18.9979ZM14.3973 18.9974C16.6679 19.0769 18.5749 17.3166 18.661 15.0621L17.2004 15.0071C17.1449 16.4621 15.9141 17.5982 14.4488 17.5469L14.3973 18.9974ZM18.6615 15.0346V8.54585H17.2V15.0346H18.6615ZM20.6794 9.52054L18.3411 7.94539L17.5203 9.14633L19.859 10.7216L20.6794 9.52054Z" fill="#FBD852"/>
</svg>
