<svg width="100" height="93" viewBox="0 0 100 93" fill="none" xmlns="http://www.w3.org/2000/svg">
<path d="M54.3493 1.54518C51.8192 -0.51506 48.1806 -0.51506 45.6505 1.54518L0 38.6415V92.4125H99.9997V38.6415L54.3493 1.54518Z" fill="#F0F3F5"/>
<path d="M100 38.6415L50 69.3162L49.9036 80.9066L49.7952 69.3162L0 38.6415V92.4125L49.7951 92.4969H50L100 92.4125V38.6415Z" fill="#D9CD9C"/>
<path fill-rule="evenodd" clip-rule="evenodd" d="M30.396 50.2055L61.2186 58.4678C62.8637 58.9007 64.5334 57.9359 64.9787 56.2909L65.9558 52.6421C66.2898 51.3929 65.5106 50.1313 64.4221 49.451C61.9237 47.9049 60.4642 45.0602 60.6868 42.0917L67.9719 34.7571C68.108 34.7571 68.2317 34.7323 68.3677 34.7323C69.654 34.6952 70.9528 33.9902 71.2867 32.741L72.2638 29.0922C72.7091 27.4472 71.732 25.7774 70.0993 25.3322L57.0504 21.8318L30.4084 50.2055H30.396Z" fill="#8FD7F8"/>
<path fill-rule="evenodd" clip-rule="evenodd" d="M64.0136 23.6995C65.6463 24.1448 66.611 25.8145 66.1657 27.4596L65.1886 31.1083C64.8547 32.3575 63.556 33.0625 62.2696 33.0997C62.1336 33.0997 62.0099 33.0997 61.8738 33.1244L54.5887 40.459C54.3661 43.4275 55.8256 46.2723 58.324 47.8307C59.4125 48.511 60.1917 49.7726 59.8577 51.0218L58.8806 54.6706C58.4353 56.3156 56.7656 57.2803 55.1205 56.8351L61.2183 58.4677C62.8633 58.913 64.5331 57.9359 64.9784 56.3032L65.9555 52.6545C66.2894 51.4052 65.5102 50.1436 64.4218 49.4634C61.9233 47.9173 60.4514 45.0725 60.6864 42.0917L67.9716 34.7571C68.1076 34.7571 68.2313 34.7447 68.3674 34.7323C69.6537 34.6952 70.9524 33.9902 71.2864 32.741L72.2635 29.0922C72.7088 27.4472 71.7316 25.7774 70.099 25.3322L64.0136 23.6995Z" fill="#75CDF8"/>
<path fill-rule="evenodd" clip-rule="evenodd" d="M7.85995 20.731C6.21492 21.1763 5.25017 22.8461 5.69544 24.4911L6.67256 28.1399C7.00651 29.3891 8.30522 30.0941 9.59156 30.1312C13.0053 30.2425 16.0975 32.5555 17.0251 36.031C17.9528 39.5066 16.4438 43.0564 13.5372 44.8623C12.4363 45.5425 11.6695 46.8041 12.0034 48.0534L12.9806 51.7021C13.4258 53.3471 15.0956 54.3119 16.7406 53.8666L66.3512 40.5703C67.9963 40.1251 68.961 38.4553 68.5281 36.8103L67.551 33.1615C67.217 31.9123 65.9183 31.2073 64.632 31.1702C61.2183 31.0589 58.1261 28.7459 57.1984 25.2703C56.2708 21.7947 57.7798 18.2449 60.6864 16.4391C61.7872 15.7588 62.5541 14.4972 62.2201 13.248L61.243 9.59927C60.7977 7.95424 59.128 6.98949 57.4829 7.43476L7.85995 20.731Z" fill="#F5E680"/>
<path fill-rule="evenodd" clip-rule="evenodd" d="M58.0892 7.33582C57.8913 7.34819 57.681 7.3853 57.4708 7.43477L52.7212 8.70874C54.3662 8.27584 56.036 9.24059 56.4689 10.8856L57.446 14.5344C57.78 15.7836 57.0008 17.0452 55.9123 17.7255C53.0057 19.5313 51.4967 23.0811 52.4244 26.5443C53.352 30.0199 56.4442 32.3328 59.8579 32.4442C61.1443 32.4813 62.443 33.1863 62.7769 34.4355L63.754 38.0843C64.1993 39.7293 63.2346 41.399 61.6019 41.8443L66.3391 40.5704C67.9841 40.1251 68.9489 38.4553 68.5036 36.8103L67.5265 33.1615C67.1925 31.9123 65.8938 31.2073 64.6075 31.1702C61.1937 31.0589 58.1016 28.7459 57.1739 25.2703C56.2463 21.7948 57.7553 18.245 60.6619 16.4391C61.7627 15.7589 62.5296 14.4973 62.1956 13.248L61.2185 9.59928C60.835 8.16452 59.4992 7.23687 58.0768 7.32345L58.0892 7.33582Z" fill="#F2D865"/>
<path d="M14.4032 25.3074C14.5269 25.0972 14.5888 24.8622 14.5888 24.6272C14.5888 24.1448 14.329 23.6871 13.9085 23.4521C13.6982 23.3284 13.4632 23.2666 13.2282 23.2666C12.7458 23.2666 12.2882 23.5263 12.0532 23.9469C11.9295 24.1571 11.8677 24.3921 11.8677 24.6272C11.8677 25.1095 12.1274 25.5672 12.548 25.8022C13.1911 26.1732 14.0322 25.9506 14.4156 25.3074H14.4032Z" fill="black"/>
<path d="M19.8578 23.8355C19.9815 23.6253 20.0434 23.3903 20.0434 23.1553C20.0434 22.6729 19.7836 22.2152 19.3631 21.9802C19.1528 21.8566 18.9178 21.7947 18.6828 21.7947C18.2004 21.7947 17.7428 22.0545 17.5078 22.475C17.3841 22.6853 17.3223 22.9203 17.3223 23.1553C17.3223 23.6376 17.582 24.0953 18.0025 24.3303C18.6457 24.7013 19.4868 24.4787 19.8702 23.8355H19.8578Z" fill="black"/>
<path d="M24.1374 23.0563C24.6197 23.0563 25.0774 22.7966 25.3124 22.3761C25.4361 22.1658 25.4979 21.9308 25.4979 21.6958C25.4979 21.2134 25.2382 20.7558 24.8176 20.5208C24.6074 20.3971 24.3724 20.3352 24.1374 20.3352C23.655 20.3352 23.1973 20.595 22.9623 21.0155C22.5913 21.6587 22.8139 22.4997 23.4571 22.8708C23.6673 22.9945 23.9023 23.0563 24.1374 23.0563Z" fill="black"/>
<path d="M51.2494 40.2858C51.3731 40.0756 51.4349 39.8406 51.4349 39.6055C51.4349 39.1232 51.1752 38.6655 50.7546 38.4305C50.5444 38.3068 50.3094 38.245 50.0744 38.245C49.592 38.245 49.1343 38.5047 48.8993 38.9253C48.5283 39.5684 48.7509 40.4095 49.3941 40.7806C50.0373 41.1516 50.8783 40.929 51.2494 40.2858Z" fill="black"/>
<path d="M55.5412 39.5066C56.0236 39.5066 56.4812 39.2469 56.7162 38.8263C56.8399 38.6161 56.9018 38.3811 56.9018 38.1461C56.9018 37.6637 56.642 37.2061 56.2215 36.9711C56.0112 36.8474 55.7762 36.7855 55.5412 36.7855C55.0588 36.7855 54.6012 37.0453 54.3662 37.4658C54.2425 37.6761 54.1807 37.9111 54.1807 38.1461C54.1807 38.6285 54.4404 39.0861 54.8609 39.3211C55.0712 39.4448 55.3062 39.5066 55.5412 39.5066Z" fill="black"/>
<path d="M60.9958 38.0471C61.4781 38.0471 61.9358 37.7874 62.1708 37.3668C62.2945 37.1566 62.3563 36.9216 62.3563 36.6866C62.3563 36.2042 62.0966 35.7466 61.676 35.5116C61.4658 35.3879 61.2308 35.326 60.9958 35.326C60.5134 35.326 60.0557 35.5858 59.8207 36.0063C59.4497 36.6495 59.6723 37.4905 60.3155 37.8616C60.5257 37.9853 60.7607 38.0471 60.9958 38.0471Z" fill="black"/>
<path d="M44.7108 48.7138L0 92.4126H99.9997L55.2891 48.7138C52.3493 45.8464 47.6506 45.8464 44.7108 48.7138Z" fill="#F5E680"/>
<path fill-rule="evenodd" clip-rule="evenodd" d="M38.6814 21.5009L40.7855 25.5011L45.252 26.2618C46.5686 26.4827 47.0854 28.0901 46.1502 29.035L42.9757 32.2744L43.6278 36.7531C43.8247 38.066 42.4589 39.0477 41.2653 38.471L37.2048 36.4586L33.1444 38.471C31.9508 39.0599 30.585 38.066 30.7819 36.7531L31.434 32.2744L28.2595 29.035C27.3243 28.0901 27.8534 26.495 29.1577 26.2618L33.6242 25.5011L35.7283 21.5009C36.3435 20.3229 38.0292 20.3229 38.6445 21.5009H38.6814Z" fill="#EBB680"/>
</svg>
