<svg width="24" height="24" viewBox="0 0 24 24" fill="none" xmlns="http://www.w3.org/2000/svg">
<path opacity="0.1" fill-rule="evenodd" clip-rule="evenodd" d="M0 12C0 5.37258 5.37258 0 12 0C18.6274 0 24 5.37258 24 12C24 18.6274 18.6274 24 12 24C5.37258 24 0 18.6274 0 12Z" fill="white"/>
<path fill-rule="evenodd" clip-rule="evenodd" d="M11.5 3C6.80559 3 3 6.80554 3 11.5C3 16.1944 6.80559 20 11.5 20C16.1945 20 20 16.1944 20 11.5C20 6.80554 16.1945 3 11.5 3ZM11.5 18.3C7.75049 18.3 4.7 15.2495 4.7 11.5C4.7 7.75049 7.75049 4.7 11.5 4.7C15.2496 4.7 18.3 7.75049 18.3 11.5C18.3 15.2495 15.2496 18.3 11.5 18.3ZM12.5644 8.1C12.5644 8.71628 12.1157 9.1625 11.5086 9.1625C10.8771 9.1625 10.4394 8.71628 10.4394 8.08821C10.4394 7.48456 10.8889 7.0375 11.5086 7.0375C12.1157 7.0375 12.5644 7.48456 12.5644 8.1ZM10.6519 10.65H12.3519V15.75H10.6519V10.65Z" fill="#FBD852"/>
</svg>
