<svg width="24" height="24" viewBox="0 0 24 24" fill="none" xmlns="http://www.w3.org/2000/svg">
<path opacity="0.1" fill-rule="evenodd" clip-rule="evenodd" d="M0 12C0 5.37258 5.37258 0 12 0C18.6274 0 24 5.37258 24 12C24 18.6274 18.6274 24 12 24C5.37258 24 0 18.6274 0 12Z" fill="white"/>
<path fill-rule="evenodd" clip-rule="evenodd" d="M9.41802 10.6H6.58201C6.16587 10.5968 5.76541 10.748 5.46873 11.0203C5.17204 11.2927 5.00343 11.6638 5 12.0521V17.5481C5.0077 18.3565 5.71584 19.0061 6.58201 18.9993H9.41802C9.83412 19.0026 10.2346 18.8514 10.5313 18.5791C10.828 18.3067 10.9966 17.9356 11 17.5472V12.0521C10.9966 11.6638 10.828 11.2927 10.5313 11.0203C10.2346 10.748 9.83412 10.5968 9.41802 10.6Z" stroke="#FBD852" stroke-linecap="round" stroke-linejoin="round"/>
<path fill-rule="evenodd" clip-rule="evenodd" d="M9.41802 5.00056H6.58201C5.73326 4.97859 5.02559 5.60188 5 6.39392V7.34024C5.02559 8.13228 5.73326 8.75557 6.58201 8.73359H9.41802C10.2667 8.75557 10.9744 8.13228 11 7.34024V6.39392C10.9744 5.60188 10.2667 4.97859 9.41802 5.00056Z" stroke="#FBD852" stroke-linecap="round" stroke-linejoin="round"/>
<path fill-rule="evenodd" clip-rule="evenodd" d="M14.582 13.4H17.417C17.8333 13.4035 18.234 13.2524 18.5309 12.98C18.8278 12.7076 18.9966 12.3364 19 11.9479V6.45281C18.9966 6.06446 18.828 5.69329 18.5313 5.42095C18.2346 5.14862 17.8341 4.99743 17.418 5.00066H14.582C14.1659 4.99743 13.7654 5.14862 13.4687 5.42095C13.172 5.69329 13.0034 6.06446 13 6.45281V11.9479C13.0034 12.3362 13.172 12.7073 13.4687 12.9797C13.7654 13.252 14.1659 13.4032 14.582 13.4Z" stroke="#FBD852" stroke-linecap="round" stroke-linejoin="round"/>
<path fill-rule="evenodd" clip-rule="evenodd" d="M14.582 18.9994H17.417C18.2661 19.0219 18.9744 18.3985 19 17.606V16.6597C18.9744 15.8677 18.2667 15.2444 17.418 15.2664H14.582C13.7333 15.2444 13.0256 15.8677 13 16.6597V17.6051C13.025 18.3975 13.7329 19.0213 14.582 18.9994Z" stroke="#FBD852" stroke-linecap="round" stroke-linejoin="round"/>
</svg>
