<svg width="24" height="24" viewBox="0 0 24 24" fill="none" xmlns="http://www.w3.org/2000/svg">
<path opacity="0.1" fill-rule="evenodd" clip-rule="evenodd" d="M0 12C0 5.37258 5.37258 0 12 0C18.6274 0 24 5.37258 24 12C24 18.6274 18.6274 24 12 24C5.37258 24 0 18.6274 0 12Z" fill="white"/>
<path fill-rule="evenodd" clip-rule="evenodd" d="M12.0007 4C9.82806 4 9.55539 4.0095 8.70205 4.04833C7.85037 4.08733 7.26903 4.22217 6.76036 4.42C6.23419 4.62433 5.78785 4.89767 5.34318 5.3425C4.89818 5.78717 4.62484 6.2335 4.41984 6.7595C4.2215 7.26833 4.0865 7.84983 4.04817 8.70117C4.01 9.5545 4 9.82733 4 12C4 14.1727 4.00967 14.4445 4.04833 15.2978C4.0875 16.1495 4.22234 16.7308 4.42 17.2395C4.62451 17.7657 4.89784 18.212 5.34268 18.6567C5.78719 19.1017 6.23352 19.3757 6.75936 19.58C7.26837 19.7778 7.84987 19.9127 8.70138 19.9517C9.55472 19.9905 9.82723 20 11.9998 20C14.1726 20 14.4444 19.9905 15.2978 19.9517C16.1495 19.9127 16.7315 19.7778 17.2405 19.58C17.7665 19.3757 18.2121 19.1017 18.6567 18.6567C19.1017 18.212 19.375 17.7657 19.58 17.2397C19.7767 16.7308 19.9117 16.1493 19.9517 15.298C19.99 14.4447 20 14.1727 20 12C20 9.82733 19.99 9.55467 19.9517 8.70133C19.9117 7.84967 19.7767 7.26833 19.58 6.75967C19.375 6.2335 19.1017 5.78717 18.6567 5.3425C18.2116 4.8975 17.7666 4.62417 17.24 4.42C16.73 4.22217 16.1483 4.08733 15.2966 4.04833C14.4433 4.0095 14.1716 4 11.9983 4H12.0007ZM11.283 5.44164C11.496 5.44131 11.7337 5.44164 12.0007 5.44164C14.1367 5.44164 14.3899 5.44931 15.2334 5.48764C16.0134 5.52331 16.4368 5.65364 16.7188 5.76314C17.0921 5.90814 17.3583 6.08148 17.6381 6.36148C17.9181 6.64148 18.0914 6.90814 18.2368 7.28148C18.3463 7.56314 18.4768 7.98648 18.5123 8.76648C18.5506 9.60981 18.5589 9.86315 18.5589 11.9981C18.5589 14.1331 18.5506 14.3865 18.5123 15.2298C18.4766 16.0098 18.3463 16.4331 18.2368 16.7148C18.0918 17.0881 17.9181 17.354 17.6381 17.6338C17.3581 17.9138 17.0923 18.0871 16.7188 18.2321C16.4371 18.3421 16.0134 18.4721 15.2334 18.5078C14.3901 18.5461 14.1367 18.5545 12.0007 18.5545C9.86453 18.5545 9.61136 18.5461 8.76801 18.5078C7.98801 18.4718 7.56467 18.3415 7.2825 18.232C6.90916 18.087 6.64249 17.9136 6.36249 17.6336C6.08249 17.3536 5.90915 17.0876 5.76382 16.7141C5.65432 16.4325 5.52381 16.0091 5.48831 15.2291C5.44998 14.3858 5.44231 14.1325 5.44231 11.9961C5.44231 9.85981 5.44998 9.60781 5.48831 8.76448C5.52398 7.98448 5.65432 7.56114 5.76382 7.27914C5.90882 6.90581 6.08249 6.63914 6.36249 6.35914C6.64249 6.07914 6.90916 5.90581 7.2825 5.76048C7.5645 5.65048 7.98801 5.52048 8.76801 5.48464C9.50602 5.45131 9.79202 5.44131 11.283 5.43964V5.44164ZM16.2711 6.76998C15.7411 6.76998 15.3111 7.19948 15.3111 7.72965C15.3111 8.25965 15.7411 8.68965 16.2711 8.68965C16.8011 8.68965 17.2311 8.25965 17.2311 7.72965C17.2311 7.19965 16.8011 6.76998 16.2711 6.76998ZM12.0008 7.89165C9.73191 7.89165 7.89239 9.73115 7.89239 12C7.89239 14.2688 9.73191 16.1075 12.0008 16.1075C14.2696 16.1075 16.1085 14.2688 16.1085 12C16.1085 9.73115 14.2696 7.89165 12.0008 7.89165ZM12.0007 9.33331C13.4734 9.33331 14.6674 10.5271 14.6674 12C14.6674 13.4726 13.4734 14.6666 12.0007 14.6666C10.5279 14.6666 9.33404 13.4726 9.33404 12C9.33404 10.5271 10.5279 9.33331 12.0007 9.33331Z" fill="#FBD852"/>
</svg>
