<svg width="24" height="24" viewBox="0 0 24 24" fill="none" xmlns="http://www.w3.org/2000/svg">
<path opacity="0.1" fill-rule="evenodd" clip-rule="evenodd" d="M0 12C0 5.37258 5.37258 0 12 0C18.6274 0 24 5.37258 24 12C24 18.6274 18.6274 24 12 24C5.37258 24 0 18.6274 0 12Z" fill="white"/>
<path fill-rule="evenodd" clip-rule="evenodd" d="M13.7197 4.20921C14.0126 3.93026 14.4875 3.93026 14.7803 4.20921L20.7803 9.92349C21.0732 10.2024 21.0732 10.6547 20.7803 10.9336L16.5 15.0101V16.8571C16.5 18.0406 15.4927 19 14.25 19H6.75C4.67894 19 3 17.401 3 15.4286V9C3 7.42204 4.34315 6.14286 6 6.14286H11.6894L13.7197 4.20921ZM10.1893 7.57143H6C5.17157 7.57143 4.5 8.21102 4.5 9V15.4286C4.5 16.6121 5.50736 17.5714 6.75 17.5714H14.25C14.6642 17.5714 15 17.2516 15 16.8571V14.7148V14.7138V11.1429C15 10.7484 14.6642 10.4286 14.25 10.4286H9.00052H8.99949H6.75C5.92158 10.4286 5.25 9.78898 5.25 9V8.64286C5.25 8.24837 5.58579 7.92857 6 7.92857C6.41421 7.92857 6.75 8.24837 6.75 8.64286V9H8.68935L10.1893 7.57143ZM10.8107 9H14.25C15.4927 9 16.5 9.95939 16.5 11.1429V12.9899L19.1894 10.4286L14.25 5.72444L12.5303 7.36222L10.8107 9Z" fill="#FBD852"/>
</svg>
