<svg width="24" height="24" viewBox="0 0 24 24" fill="none" xmlns="http://www.w3.org/2000/svg">
<path opacity="0.1" fill-rule="evenodd" clip-rule="evenodd" d="M0 12C0 5.37258 5.37258 0 12 0C18.6274 0 24 5.37258 24 12C24 18.6274 18.6274 24 12 24C5.37258 24 0 18.6274 0 12Z" fill="white"/>
<path d="M11.0526 3C9.15424 3 7.3336 3.75857 5.99124 5.10883C4.64887 6.45909 3.89474 8.29044 3.89474 10.2V11.91C3.62482 12.1466 3.40612 12.4364 3.25221 12.7615C3.09829 13.0866 3.01245 13.4401 3 13.8C3.02038 14.3219 3.19701 14.8254 3.50675 15.2445C3.81648 15.6637 4.24487 15.9789 4.73579 16.149C5.89895 18.948 8.23421 21 11.0526 21H13.7368V19.2H11.0526C9.03053 19.2 7.19632 17.67 6.27474 15.249L6.08684 14.754L5.55895 14.7C5.34396 14.6694 5.14736 14.5613 5.00579 14.3957C4.86422 14.2301 4.78734 14.0184 4.78947 13.8C4.79042 13.6429 4.83221 13.4889 4.91069 13.3531C4.98917 13.2173 5.10161 13.1045 5.23684 13.026L5.68421 12.765V11.1C5.68421 10.8613 5.77848 10.6324 5.94627 10.4636C6.11407 10.2948 6.34165 10.2 6.57895 10.2H15.5263C15.7636 10.2 15.9912 10.2948 16.159 10.4636C16.3268 10.6324 16.4211 10.8613 16.4211 11.1V15.6H12.7616C12.6804 15.3709 12.5391 15.1681 12.3527 15.0131C12.1664 14.8581 11.9418 14.7566 11.7029 14.7194C11.4639 14.6821 11.2194 14.7105 10.9951 14.8016C10.7709 14.8926 10.5752 15.0429 10.4289 15.2366C10.2826 15.4302 10.191 15.6601 10.1638 15.9018C10.1367 16.1435 10.1749 16.3881 10.2746 16.6097C10.3742 16.8314 10.5316 17.0218 10.7299 17.1609C10.9283 17.3 11.1604 17.3826 11.4016 17.4H18.2105C18.6851 17.4 19.1403 17.2104 19.4759 16.8728C19.8115 16.5352 20 16.0774 20 15.6V13.8C20 13.3226 19.8115 12.8648 19.4759 12.5272C19.1403 12.1896 18.6851 12 18.2105 12V10.2C18.2105 8.29044 17.4564 6.45909 16.114 5.10883C14.7717 3.75857 12.951 3 11.0526 3Z" fill="#FBD852"/>
</svg>
